<svg xmlns="http://www.w3.org/2000/svg" viewBox="0 0 64 64" role="img" aria-label="Skills Marketplace Starter">
  <rect width="64" height="64" rx="16" fill="#071c16"/>
  <path d="M18 22c0-5.5 4.5-10 10-10h17c1.7 0 3 1.3 3 3s-1.3 3-3 3H28c-2.2 0-4 1.8-4 4s1.8 4 4 4h8c5.5 0 10 4.5 10 10s-4.5 10-10 10H19c-1.7 0-3-1.3-3-3s1.3-3 3-3h17c2.2 0 4-1.8 4-4s-1.8-4-4-4h-8c-5.5 0-10-4.5-10-10Z" fill="#ecfdf5"/>
  <circle cx="20" cy="20" r="5" fill="#34d399"/>
  <circle cx="44" cy="44" r="5" fill="#10b981"/>
  <path d="M45 14h4v4c0 1.1.9 2 2 2h4v4h-4c-1.1 0-2 .9-2 2v4h-4v-4c0-1.1-.9-2-2-2h-4v-4h4c1.1 0 2-.9 2-2v-4Z" fill="#6ee7b7"/>
</svg>
